<svg data-v-fde0c5aa="" xmlns="http://www.w3.org/2000/svg" viewBox="0 0 300 300" class="iconLeft"><!----><defs data-v-fde0c5aa=""><!----></defs><rect data-v-fde0c5aa="" fill="#EAF2EF" x="0" y="0" width="300px" height="300px" class="logo-background-square"></rect><defs data-v-fde0c5aa=""><!----></defs><g data-v-fde0c5aa="" id="c29553a4-11f8-4919-a412-e7644f2a997c" fill="#0E261C" transform="matrix(2.3741822261322394,0,0,2.3741822261322394,96.63252030661866,129.53454891639453)"><path d="M1.13 4.05L1.13 13.73L5.33 13.73C7.38 13.73 8.51 12.74 8.51 11.02C8.51 9.79 7.91 9.06 6.99 8.69C7.77 8.33 8.19 7.63 8.19 6.62C8.19 4.93 7.03 4.05 5.33 4.05ZM2.53 9.38L5.17 9.38C6.44 9.38 7.17 9.87 7.17 10.93C7.17 11.91 6.55 12.45 5.32 12.45L2.53 12.45ZM2.53 5.35L5.38 5.35C6.23 5.35 6.85 5.81 6.85 6.75C6.85 7.71 6.19 8.20 5.38 8.20L2.53 8.20ZM10.01 6.33L10.01 11.21C10.01 13.08 11.05 13.92 12.54 13.92C13.54 13.92 14.32 13.54 14.88 12.81L14.88 13.73L16.14 13.73L16.14 6.33L14.81 6.33L14.81 11.34C14.39 12.33 13.75 12.66 12.96 12.66C12.03 12.66 11.34 12.17 11.34 10.99L11.34 6.33ZM22.96 6.59C22.71 6.36 22.32 6.15 21.66 6.15C20.76 6.15 20.05 6.52 19.53 7.22L19.53 6.33L18.27 6.33L18.27 13.73L19.60 13.73L19.60 8.74C20.02 7.70 20.65 7.41 21.41 7.41C21.85 7.41 22.20 7.50 22.47 7.77ZM24.28 6.33L24.28 13.73L25.61 13.73L25.61 8.71C26.01 7.73 26.67 7.41 27.45 7.41C28.43 7.41 29.08 7.90 29.08 9.18L29.08 13.73L30.41 13.73L30.41 9.04C30.41 6.97 29.37 6.15 27.87 6.15C26.87 6.15 26.08 6.52 25.54 7.24L25.54 6.33ZM31.72 6.33L31.72 7.42L32.56 7.42L32.56 11.91C32.56 13.19 33.32 13.80 34.23 13.80C34.76 13.80 35.34 13.59 35.60 13.29L35.83 12.07C35.49 12.39 35.15 12.52 34.76 12.52C34.20 12.52 33.89 12.21 33.89 11.62L33.89 7.42L35.78 7.42L35.78 6.33L33.89 6.33L33.89 3.89L32.56 4.33L32.56 6.33ZM40.88 4.05L40.88 13.73L45.08 13.73C47.12 13.73 48.26 12.74 48.26 11.02C48.26 9.79 47.66 9.06 46.73 8.69C47.52 8.33 47.94 7.63 47.94 6.62C47.94 4.93 46.77 4.05 45.08 4.05ZM42.28 9.38L44.91 9.38C46.19 9.38 46.91 9.87 46.91 10.93C46.91 11.91 46.30 12.45 45.07 12.45L42.28 12.45ZM42.28 5.35L45.12 5.35C45.98 5.35 46.59 5.81 46.59 6.75C46.59 7.71 45.93 8.20 45.12 8.20L42.28 8.20ZM49.81 3.84L49.81 13.73L51.14 13.73L51.14 3.39ZM53.21 6.33L53.21 11.21C53.21 13.08 54.25 13.92 55.75 13.92C56.74 13.92 57.53 13.54 58.09 12.81L58.09 13.73L59.35 13.73L59.35 6.33L58.02 6.33L58.02 11.34C57.60 12.33 56.95 12.66 56.17 12.66C55.23 12.66 54.54 12.17 54.54 10.99L54.54 6.33ZM64.37 3.42C64.18 3.36 63.84 3.32 63.35 3.32C62.31 3.32 61.56 3.67 61.56 5.04L61.56 6.33L60.72 6.33L60.72 7.42L61.56 7.42L61.56 13.73L62.89 13.73L62.89 7.42L64.34 7.42L64.34 6.33L62.89 6.33L62.89 5.25C62.89 4.62 63.24 4.44 63.70 4.44C63.98 4.44 64.25 4.48 64.37 4.51ZM68.81 3.42C68.61 3.36 68.28 3.32 67.79 3.32C66.75 3.32 66.00 3.67 66.00 5.04L66.00 6.33L65.16 6.33L65.16 7.42L66.00 7.42L66.00 13.73L67.33 13.73L67.33 7.42L68.78 7.42L68.78 6.33L67.33 6.33L67.33 5.25C67.33 4.62 67.68 4.44 68.14 4.44C68.42 4.44 68.68 4.48 68.81 4.51Z"></path></g><defs data-v-fde0c5aa=""><linearGradient data-v-fde0c5aa="" gradientTransform="rotate(25)" id="09e1a3ad-ac94-4a1b-b4ca-136078c5c912" x1="0%" y1="0%" x2="100%" y2="0%"><stop data-v-fde0c5aa="" offset="0%" stop-color="#0A3732" stop-opacity="1"></stop><stop data-v-fde0c5aa="" offset="100%" stop-color="#55C388" stop-opacity="1"></stop></linearGradient></defs><g data-v-fde0c5aa="" id="e010e34c-7d1d-4841-8331-791e4546d9bc" stroke="none" fill="url(#09e1a3ad-ac94-4a1b-b4ca-136078c5c912)" transform="matrix(0.4980144753852375,0,0,0.4980144753852375,38.80476497410926,125.64708949397765)"><path d="M15.8 86.8l-13.4-34 16.9-22.3 45-19.5 31.1 43.6-14 31.7-65.6.5zM6.7 53.4L18.4 83l60.6-.5L91 55 63 15.6l-41.3 18-15 19.8z"></path><path d="M18.1 86.5l-2-3.2 41.2-25.7 4.5-43.4 3.7.4-4.6 45.3z"></path><path d="M92.405 51.786l.573 3.757-33.513 5.112-.573-3.756z"></path></g><!----></svg>